<svg width="21" height="21" viewBox="0 0 21 21" fill="none" xmlns="http://www.w3.org/2000/svg">
<g clip-path="url(#clip0_1674_1166)">
<path d="M0.5 3.625C0.5 3.45924 0.565848 3.30027 0.683058 3.18306C0.800269 3.06585 0.95924 3 1.125 3H3C3.13941 3.00004 3.27481 3.04669 3.38466 3.13253C3.49452 3.21837 3.57251 3.33848 3.60625 3.47375L4.1125 5.5H18.625C18.7199 5.50003 18.8136 5.52168 18.8989 5.56332C18.9843 5.60495 19.059 5.66548 19.1174 5.7403C19.1758 5.81512 19.2165 5.90227 19.2362 5.99513C19.2559 6.088 19.2542 6.18414 19.2312 6.27625L17.3562 13.7763C17.3225 13.9115 17.2445 14.0316 17.1347 14.1175C17.0248 14.2033 16.8894 14.25 16.75 14.25H5.5C5.36059 14.25 5.22519 14.2033 5.11534 14.1175C5.00548 14.0316 4.92749 13.9115 4.89375 13.7763L2.5125 4.25H1.125C0.95924 4.25 0.800269 4.18415 0.683058 4.06694C0.565848 3.94973 0.5 3.79076 0.5 3.625ZM4.425 6.75L5.05 9.25H6.75V6.75H4.425ZM8 6.75V9.25H10.5V6.75H8ZM11.75 6.75V9.25H14.25V6.75H11.75ZM15.5 6.75V9.25H17.2L17.825 6.75H15.5ZM16.8875 10.5H15.5V13H16.2625L16.8875 10.5ZM14.25 10.5H11.75V13H14.25V10.5ZM10.5 10.5H8V13H10.5V10.5ZM6.75 10.5H5.3625L5.9875 13H6.75V10.5ZM6.75 16.75C6.41848 16.75 6.10054 16.8817 5.86612 17.1161C5.6317 17.3505 5.5 17.6685 5.5 18C5.5 18.3315 5.6317 18.6495 5.86612 18.8839C6.10054 19.1183 6.41848 19.25 6.75 19.25C7.08152 19.25 7.39946 19.1183 7.63388 18.8839C7.8683 18.6495 8 18.3315 8 18C8 17.6685 7.8683 17.3505 7.63388 17.1161C7.39946 16.8817 7.08152 16.75 6.75 16.75ZM4.25 18C4.25 17.337 4.51339 16.7011 4.98223 16.2322C5.45107 15.7634 6.08696 15.5 6.75 15.5C7.41304 15.5 8.04893 15.7634 8.51777 16.2322C8.98661 16.7011 9.25 17.337 9.25 18C9.25 18.663 8.98661 19.2989 8.51777 19.7678C8.04893 20.2366 7.41304 20.5 6.75 20.5C6.08696 20.5 5.45107 20.2366 4.98223 19.7678C4.51339 19.2989 4.25 18.663 4.25 18ZM15.5 16.75C15.1685 16.75 14.8505 16.8817 14.6161 17.1161C14.3817 17.3505 14.25 17.6685 14.25 18C14.25 18.3315 14.3817 18.6495 14.6161 18.8839C14.8505 19.1183 15.1685 19.25 15.5 19.25C15.8315 19.25 16.1495 19.1183 16.3839 18.8839C16.6183 18.6495 16.75 18.3315 16.75 18C16.75 17.6685 16.6183 17.3505 16.3839 17.1161C16.1495 16.8817 15.8315 16.75 15.5 16.75ZM13 18C13 17.337 13.2634 16.7011 13.7322 16.2322C14.2011 15.7634 14.837 15.5 15.5 15.5C16.163 15.5 16.7989 15.7634 17.2678 16.2322C17.7366 16.7011 18 17.337 18 18C18 18.663 17.7366 19.2989 17.2678 19.7678C16.7989 20.2366 16.163 20.5 15.5 20.5C14.837 20.5 14.2011 20.2366 13.7322 19.7678C13.2634 19.2989 13 18.663 13 18Z" fill="#6D6D6D"/>
</g>
<defs>
<clipPath id="clip0_1674_1166">
<rect width="20" height="20" fill="white" transform="translate(0.5 0.5)"/>
</clipPath>
</defs>
</svg>
