<svg width="21" height="20" viewBox="0 0 21 20" fill="none" xmlns="http://www.w3.org/2000/svg">
<g clip-path="url(#clip0_3550_1342)">
<path d="M0.666016 3.125C0.666016 2.95924 0.731864 2.80027 0.849074 2.68306C0.966284 2.56585 1.12526 2.5 1.29102 2.5H3.16602C3.30543 2.50004 3.44083 2.54669 3.55068 2.63253C3.66053 2.71837 3.73853 2.83848 3.77227 2.97375L4.27852 5H18.791C18.886 5.00003 18.9796 5.02168 19.065 5.06332C19.1503 5.10495 19.225 5.16548 19.2834 5.2403C19.3419 5.31512 19.3825 5.40227 19.4022 5.49513C19.4219 5.588 19.4202 5.68414 19.3973 5.77625L17.5223 13.2763C17.4885 13.4115 17.4105 13.5316 17.3007 13.6175C17.1908 13.7033 17.0554 13.75 16.916 13.75H5.66602C5.5266 13.75 5.3912 13.7033 5.28135 13.6175C5.1715 13.5316 5.0935 13.4115 5.05977 13.2763L2.67852 3.75H1.29102C1.12526 3.75 0.966284 3.68415 0.849074 3.56694C0.731864 3.44973 0.666016 3.29076 0.666016 3.125ZM4.59102 6.25L5.21602 8.75H6.91602V6.25H4.59102ZM8.16602 6.25V8.75H10.666V6.25H8.16602ZM11.916 6.25V8.75H14.416V6.25H11.916ZM15.666 6.25V8.75H17.366L17.991 6.25H15.666ZM17.0535 10H15.666V12.5H16.4285L17.0535 10ZM14.416 10H11.916V12.5H14.416V10ZM10.666 10H8.16602V12.5H10.666V10ZM6.91602 10H5.52852L6.15352 12.5H6.91602V10ZM6.91602 16.25C6.5845 16.25 6.26655 16.3817 6.03213 16.6161C5.79771 16.8505 5.66602 17.1685 5.66602 17.5C5.66602 17.8315 5.79771 18.1495 6.03213 18.3839C6.26655 18.6183 6.5845 18.75 6.91602 18.75C7.24754 18.75 7.56548 18.6183 7.7999 18.3839C8.03432 18.1495 8.16602 17.8315 8.16602 17.5C8.16602 17.1685 8.03432 16.8505 7.7999 16.6161C7.56548 16.3817 7.24754 16.25 6.91602 16.25ZM4.41602 17.5C4.41602 16.837 4.67941 16.2011 5.14825 15.7322C5.61709 15.2634 6.25297 15 6.91602 15C7.57906 15 8.21494 15.2634 8.68378 15.7322C9.15262 16.2011 9.41602 16.837 9.41602 17.5C9.41602 18.163 9.15262 18.7989 8.68378 19.2678C8.21494 19.7366 7.57906 20 6.91602 20C6.25297 20 5.61709 19.7366 5.14825 19.2678C4.67941 18.7989 4.41602 18.163 4.41602 17.5ZM15.666 16.25C15.3345 16.25 15.0166 16.3817 14.7821 16.6161C14.5477 16.8505 14.416 17.1685 14.416 17.5C14.416 17.8315 14.5477 18.1495 14.7821 18.3839C15.0166 18.6183 15.3345 18.75 15.666 18.75C15.9975 18.75 16.3155 18.6183 16.5499 18.3839C16.7843 18.1495 16.916 17.8315 16.916 17.5C16.916 17.1685 16.7843 16.8505 16.5499 16.6161C16.3155 16.3817 15.9975 16.25 15.666 16.25ZM13.166 17.5C13.166 16.837 13.4294 16.2011 13.8982 15.7322C14.3671 15.2634 15.003 15 15.666 15C16.3291 15 16.9649 15.2634 17.4338 15.7322C17.9026 16.2011 18.166 16.837 18.166 17.5C18.166 18.163 17.9026 18.7989 17.4338 19.2678C16.9649 19.7366 16.3291 20 15.666 20C15.003 20 14.3671 19.7366 13.8982 19.2678C13.4294 18.7989 13.166 18.163 13.166 17.5Z" fill="white"/>
</g>
<defs>
<clipPath id="clip0_3550_1342">
<rect width="20" height="20" fill="white" transform="translate(0.666016)"/>
</clipPath>
</defs>
</svg>
