<svg width="24" height="24" viewBox="0 0 24 24" fill="none" xmlns="http://www.w3.org/2000/svg">
<path d="M7.04883 11.1429C7.04883 11.3702 7.13913 11.5883 7.29988 11.749C7.46063 11.9097 7.67864 12.0001 7.90597 12.0001C8.1333 12.0001 8.35132 11.9097 8.51206 11.749C8.67281 11.5883 8.76311 11.3702 8.76311 11.1429C8.76311 10.9156 8.67281 10.6976 8.51206 10.5368C8.35132 10.3761 8.1333 10.2858 7.90597 10.2858C7.67864 10.2858 7.46063 10.3761 7.29988 10.5368C7.13913 10.6976 7.04883 10.9156 7.04883 11.1429ZM14.7631 11.1429C14.7631 11.3702 14.8534 11.5883 15.0142 11.749C15.1749 11.9097 15.3929 12.0001 15.6203 12.0001C15.8476 12.0001 16.0656 11.9097 16.2263 11.749C16.3871 11.5883 16.4774 11.3702 16.4774 11.1429C16.4774 10.9156 16.3871 10.6976 16.2263 10.5368C16.0656 10.3761 15.8476 10.2858 15.6203 10.2858C15.3929 10.2858 15.1749 10.3761 15.0142 10.5368C14.8534 10.6976 14.7631 10.9156 14.7631 11.1429Z" stroke="#0938CE" stroke-width="2"/>
<path d="M1.4707 16.9097C1.4707 12.7937 2.94156 7.35431 4.4107 5.14803C4.4107 5.14803 5.88156 4.4126 11.7633 4.4126C17.6433 4.4126 19.1141 5.14974 19.1141 5.14974C20.585 7.35431 22.0558 12.7937 22.0558 16.9097C21.5656 17.6469 19.8496 19.2635 16.9096 19.8515L14.321 16.6183C12.6378 17.01 10.8871 17.01 9.20385 16.6183L6.61699 19.8515C3.67699 19.2635 1.96099 17.6452 1.4707 16.9097Z" stroke="#0938CE" stroke-width="2" stroke-linecap="round" stroke-linejoin="round"/>
<path d="M6.61719 15.4406C7.06462 15.888 8.00576 16.3371 9.20404 16.6183C10.8878 17.0102 12.6391 17.0102 14.3229 16.6183C15.5212 16.3371 16.4606 15.888 16.9098 15.4406" stroke="#0938CE" stroke-width="2" stroke-linecap="round" stroke-linejoin="round"/>
</svg>
