<svg width="16" height="17" viewBox="0 0 16 17" fill="none" xmlns="http://www.w3.org/2000/svg">
<path d="M0.5 10.4001C0.632608 10.4001 0.759785 10.4528 0.853553 10.5466C0.947322 10.6404 1 10.7675 1 10.9001V13.4001C1 13.6654 1.10536 13.9197 1.29289 14.1073C1.48043 14.2948 1.73478 14.4001 2 14.4001H14C14.2652 14.4001 14.5196 14.2948 14.7071 14.1073C14.8946 13.9197 15 13.6654 15 13.4001V10.9001C15 10.7675 15.0527 10.6404 15.1464 10.5466C15.2402 10.4528 15.3674 10.4001 15.5 10.4001C15.6326 10.4001 15.7598 10.4528 15.8536 10.5466C15.9473 10.6404 16 10.7675 16 10.9001V13.4001C16 13.9306 15.7893 14.4393 15.4142 14.8144C15.0391 15.1894 14.5304 15.4001 14 15.4001H2C1.46957 15.4001 0.960859 15.1894 0.585786 14.8144C0.210714 14.4393 0 13.9306 0 13.4001V10.9001C0 10.7675 0.0526784 10.6404 0.146447 10.5466C0.240215 10.4528 0.367392 10.4001 0.5 10.4001V10.4001Z" fill="#A0ADD7"/>
<path d="M7.64663 12.354C7.69308 12.4006 7.74825 12.4375 7.809 12.4627C7.86974 12.4879 7.93486 12.5009 8.00063 12.5009C8.0664 12.5009 8.13152 12.4879 8.19226 12.4627C8.25301 12.4375 8.30819 12.4006 8.35463 12.354L11.3546 9.354C11.4485 9.26011 11.5013 9.13278 11.5013 9C11.5013 8.86722 11.4485 8.73989 11.3546 8.646C11.2607 8.55211 11.1334 8.49937 11.0006 8.49937C10.8679 8.49937 10.7405 8.55211 10.6466 8.646L8.50063 10.793V2C8.50063 1.86739 8.44795 1.74021 8.35419 1.64645C8.26042 1.55268 8.13324 1.5 8.00063 1.5C7.86802 1.5 7.74085 1.55268 7.64708 1.64645C7.55331 1.74021 7.50063 1.86739 7.50063 2V10.793L5.35463 8.646C5.26075 8.55211 5.13341 8.49937 5.00063 8.49937C4.86786 8.49937 4.74052 8.55211 4.64663 8.646C4.55275 8.73989 4.5 8.86722 4.5 9C4.5 9.13278 4.55275 9.26011 4.64663 9.354L7.64663 12.354V12.354Z" fill="#A0ADD7"/>
</svg>
