<svg width="16" height="17" viewBox="0 0 16 17" fill="none" xmlns="http://www.w3.org/2000/svg">
<g clip-path="url(#clip0_1674_1112)">
<path d="M12.166 9.44C11.642 10.502 10.932 11.56 10.206 12.51C9.5173 13.4056 8.7809 14.2635 8 15.08C7.21908 14.2635 6.48268 13.4056 5.794 12.51C5.068 11.56 4.358 10.502 3.834 9.44C3.304 8.367 3 7.362 3 6.5C3 5.17392 3.52678 3.90215 4.46447 2.96447C5.40215 2.02678 6.67392 1.5 8 1.5C9.32608 1.5 10.5979 2.02678 11.5355 2.96447C12.4732 3.90215 13 5.17392 13 6.5C13 7.362 12.695 8.367 12.166 9.44ZM8 16.5C8 16.5 14 10.814 14 6.5C14 4.9087 13.3679 3.38258 12.2426 2.25736C11.1174 1.13214 9.5913 0.5 8 0.5C6.4087 0.5 4.88258 1.13214 3.75736 2.25736C2.63214 3.38258 2 4.9087 2 6.5C2 10.814 8 16.5 8 16.5Z" fill="#6D6D6D"/>
<path d="M8 8.5C7.46957 8.5 6.96086 8.28929 6.58579 7.91421C6.21071 7.53914 6 7.03043 6 6.5C6 5.96957 6.21071 5.46086 6.58579 5.08579C6.96086 4.71071 7.46957 4.5 8 4.5C8.53043 4.5 9.03914 4.71071 9.41421 5.08579C9.78929 5.46086 10 5.96957 10 6.5C10 7.03043 9.78929 7.53914 9.41421 7.91421C9.03914 8.28929 8.53043 8.5 8 8.5ZM8 9.5C8.79565 9.5 9.55871 9.18393 10.1213 8.62132C10.6839 8.05871 11 7.29565 11 6.5C11 5.70435 10.6839 4.94129 10.1213 4.37868C9.55871 3.81607 8.79565 3.5 8 3.5C7.20435 3.5 6.44129 3.81607 5.87868 4.37868C5.31607 4.94129 5 5.70435 5 6.5C5 7.29565 5.31607 8.05871 5.87868 8.62132C6.44129 9.18393 7.20435 9.5 8 9.5Z" fill="#6D6D6D"/>
</g>
<defs>
<clipPath id="clip0_1674_1112">
<rect width="16" height="16" fill="white" transform="translate(0 0.5)"/>
</clipPath>
</defs>
</svg>
