<svg width="21" height="21" viewBox="0 0 21 21" fill="none" xmlns="http://www.w3.org/2000/svg">
<g clip-path="url(#clip0_1674_1161)">
<path d="M10.8332 1.75C11.4963 1.75 12.1322 2.01339 12.601 2.48223C13.0699 2.95107 13.3332 3.58696 13.3332 4.25V6.75H8.33324V4.25C8.33324 3.58696 8.59663 2.95107 9.06548 2.48223C9.53432 2.01339 10.1702 1.75 10.8332 1.75ZM14.5832 6.75V4.25C14.5832 3.25544 14.1882 2.30161 13.4849 1.59835C12.7816 0.895088 11.8278 0.5 10.8332 0.5C9.83868 0.5 8.88485 0.895088 8.18159 1.59835C7.47833 2.30161 7.08324 3.25544 7.08324 4.25V6.75H5.03324C4.58434 6.7501 4.15036 6.91125 3.81019 7.20417C3.47002 7.49709 3.24623 7.90233 3.17949 8.34625L1.89574 16.9125C1.82923 17.357 1.85937 17.8106 1.98411 18.2423C2.10884 18.6741 2.32525 19.0739 2.61855 19.4144C2.91185 19.7549 3.27516 20.0282 3.68368 20.2155C4.09219 20.4029 4.53632 20.4999 4.98574 20.5H16.6795C17.129 20.5001 17.5733 20.4032 17.982 20.2159C18.3906 20.0287 18.7541 19.7554 19.0475 19.4149C19.341 19.0744 19.5575 18.6745 19.6823 18.2426C19.8071 17.8108 19.8373 17.3571 19.7707 16.9125L18.4857 8.34625C18.419 7.90254 18.1954 7.49747 17.8555 7.20458C17.5156 6.91169 17.0819 6.7504 16.6332 6.75H14.5832ZM13.3332 8V9.875C13.3332 10.0408 13.3991 10.1997 13.5163 10.3169C13.6335 10.4342 13.7925 10.5 13.9582 10.5C14.124 10.5 14.283 10.4342 14.4002 10.3169C14.5174 10.1997 14.5832 10.0408 14.5832 9.875V8H16.632C16.7816 8.00015 16.9262 8.05397 17.0395 8.15168C17.1529 8.2494 17.2273 8.38452 17.2495 8.5325L18.5345 17.0963C18.5746 17.363 18.5567 17.6353 18.4819 17.8945C18.4072 18.1537 18.2774 18.3937 18.1014 18.5982C17.9255 18.8026 17.7074 18.9667 17.4623 19.0792C17.2171 19.1917 16.9505 19.2499 16.6807 19.25H4.98574C4.71599 19.2499 4.44942 19.1917 4.20423 19.0792C3.95905 18.9667 3.74103 18.8026 3.56506 18.5982C3.38908 18.3937 3.25929 18.1537 3.18456 17.8945C3.10982 17.6353 3.09189 17.363 3.13199 17.0963L4.41699 8.5325C4.43911 8.38473 4.51342 8.24978 4.62647 8.15209C4.73953 8.0544 4.88383 8.00045 5.03324 8H7.08324V9.875C7.08324 10.0408 7.14909 10.1997 7.2663 10.3169C7.38351 10.4342 7.54248 10.5 7.70824 10.5C7.874 10.5 8.03297 10.4342 8.15018 10.3169C8.26739 10.1997 8.33324 10.0408 8.33324 9.875V8H13.3332Z" fill="#6D6D6D"/>
</g>
<defs>
<clipPath id="clip0_1674_1161">
<rect width="20" height="20" fill="white" transform="translate(0.833984 0.5)"/>
</clipPath>
</defs>
</svg>
