<svg width="21" height="21" viewBox="0 0 21 21" fill="none" xmlns="http://www.w3.org/2000/svg">
<g clip-path="url(#clip0_1674_1156)">
<path d="M10.1659 4.76831L9.26963 3.84706C7.16588 1.68456 3.30838 2.43081 1.91588 5.14956C1.26213 6.42831 1.11463 8.27456 2.30838 10.6308C3.45838 12.8996 5.85088 15.6171 10.1659 18.5771C14.4809 15.6171 16.8721 12.8996 18.0234 10.6308C19.2171 8.27331 19.0709 6.42831 18.4159 5.14956C17.0234 2.43081 13.1659 1.68331 11.0621 3.84581L10.1659 4.76831ZM10.1659 20.0833C-9.00037 7.41831 4.26463 -2.46669 9.94588 2.76206C10.0209 2.83081 10.0946 2.90206 10.1659 2.97581C10.2364 2.90213 10.3098 2.83124 10.3859 2.76331C16.0659 -2.46919 29.3321 7.41706 10.1659 20.0833Z" fill="#6D6D6D"/>
</g>
<defs>
<clipPath id="clip0_1674_1156">
<rect width="20" height="20" fill="white" transform="translate(0.166016 0.5)"/>
</clipPath>
</defs>
</svg>
