<svg width="21" height="21" viewBox="0 0 21 21" fill="none" xmlns="http://www.w3.org/2000/svg">
<g clip-path="url(#clip0_1674_1150)">
<path d="M14.25 8C14.25 8.99456 13.8549 9.94839 13.1517 10.6517C12.4484 11.3549 11.4946 11.75 10.5 11.75C9.50544 11.75 8.55161 11.3549 7.84835 10.6517C7.14509 9.94839 6.75 8.99456 6.75 8C6.75 7.00544 7.14509 6.05161 7.84835 5.34835C8.55161 4.64509 9.50544 4.25 10.5 4.25C11.4946 4.25 12.4484 4.64509 13.1517 5.34835C13.8549 6.05161 14.25 7.00544 14.25 8Z" fill="#6D6D6D"/>
<path fill-rule="evenodd" clip-rule="evenodd" d="M0.5 10.5C0.5 7.84784 1.55357 5.3043 3.42893 3.42893C5.3043 1.55357 7.84784 0.5 10.5 0.5C13.1522 0.5 15.6957 1.55357 17.5711 3.42893C19.4464 5.3043 20.5 7.84784 20.5 10.5C20.5 13.1522 19.4464 15.6957 17.5711 17.5711C15.6957 19.4464 13.1522 20.5 10.5 20.5C7.84784 20.5 5.3043 19.4464 3.42893 17.5711C1.55357 15.6957 0.5 13.1522 0.5 10.5ZM10.5 1.75C8.85222 1.75009 7.23796 2.21545 5.843 3.09253C4.44805 3.96962 3.3291 5.22276 2.61496 6.70774C1.90081 8.19272 1.62048 9.84917 1.80625 11.4864C1.99201 13.1237 2.63632 14.6753 3.665 15.9625C4.5525 14.5325 6.50625 13 10.5 13C14.4937 13 16.4463 14.5312 17.335 15.9625C18.3637 14.6753 19.008 13.1237 19.1938 11.4864C19.3795 9.84917 19.0992 8.19272 18.385 6.70774C17.6709 5.22276 16.552 3.96962 15.157 3.09253C13.762 2.21545 12.1478 1.75009 10.5 1.75Z" fill="#6D6D6D"/>
</g>
<defs>
<clipPath id="clip0_1674_1150">
<rect width="20" height="20" fill="white" transform="translate(0.5 0.5)"/>
</clipPath>
</defs>
</svg>
