<svg width="20" height="20" viewBox="0 0 20 20" fill="none" xmlns="http://www.w3.org/2000/svg">
<g clip-path="url(#clip0_1556_3291)">
<path d="M14.6786 12.9291C15.889 11.2775 16.4311 9.22976 16.1965 7.19559C15.9619 5.16141 14.9679 3.29082 13.4133 1.95806C11.8588 0.6253 9.85831 -0.0713465 7.81217 0.00749495C5.76603 0.0863364 3.8251 0.934852 2.37771 2.38328C0.930312 3.83172 0.0831854 5.77325 0.00580817 7.81944C-0.0715691 9.86564 0.626509 11.8656 1.96038 13.4192C3.29425 14.9728 5.16555 15.9655 7.1999 16.1986C9.23424 16.4318 11.2816 15.8882 12.9324 14.6766H12.9311C12.9686 14.7266 13.0086 14.7742 13.0536 14.8204L17.8661 19.6329C18.1005 19.8675 18.4185 19.9993 18.7501 19.9994C19.0816 19.9995 19.3997 19.8679 19.6342 19.6335C19.8688 19.3991 20.0006 19.0812 20.0007 18.7496C20.0009 18.418 19.8693 18.1 19.6349 17.8654L14.8224 13.0529C14.7777 13.0077 14.7296 12.9659 14.6786 12.9279V12.9291ZM15.0011 8.12415C15.0011 9.02699 14.8233 9.92099 14.4778 10.7551C14.1323 11.5892 13.6259 12.3471 12.9875 12.9855C12.3491 13.6239 11.5912 14.1303 10.7571 14.4758C9.92296 14.8213 9.02896 14.9992 8.12612 14.9992C7.22328 14.9992 6.32929 14.8213 5.49517 14.4758C4.66106 14.1303 3.90317 13.6239 3.26476 12.9855C2.62636 12.3471 2.11995 11.5892 1.77445 10.7551C1.42895 9.92099 1.25112 9.02699 1.25112 8.12415C1.25112 6.30079 1.97545 4.5521 3.26476 3.26279C4.55408 1.97348 6.30276 1.24915 8.12612 1.24915C9.94948 1.24915 11.6982 1.97348 12.9875 3.26279C14.2768 4.5521 15.0011 6.30079 15.0011 8.12415Z" fill="#262626"/>
</g>
<defs>
<clipPath id="clip0_1556_3291">
<rect width="20" height="20" fill="white"/>
</clipPath>
</defs>
</svg>
