<svg width="18" height="18" viewBox="0 0 18 18" fill="none" xmlns="http://www.w3.org/2000/svg">
<path fill-rule="evenodd" clip-rule="evenodd" d="M8.9992 3.375C10.2149 3.37547 11.3978 3.7698 12.3706 4.49892C13.3434 5.22804 14.0538 6.25272 14.3954 7.41946C14.737 8.58621 14.6914 9.83223 14.2655 10.9709C13.8395 12.1095 13.0561 13.0795 12.0326 13.7356C11.0091 14.3917 9.80056 14.6985 8.58806 14.6101C7.37555 14.5217 6.22431 14.0429 5.30678 13.2453C4.38924 12.4477 3.7548 11.3744 3.49848 10.186C3.24216 8.99757 3.37775 7.75812 3.88495 6.65325C3.94016 6.51892 3.94127 6.36844 3.88805 6.23331C3.83483 6.09818 3.73141 5.98887 3.59943 5.92826C3.46745 5.86765 3.31714 5.86043 3.17996 5.90812C3.04278 5.95581 2.92937 6.05471 2.86345 6.18413C2.25484 7.51004 2.09219 8.99745 2.39987 10.4236C2.70755 11.8497 3.469 13.1377 4.57016 14.0947C5.67132 15.0518 7.05291 15.6263 8.50798 15.7322C9.96305 15.8381 11.4133 15.4697 12.6414 14.6823C13.8696 13.8948 14.8095 12.7306 15.3205 11.3641C15.8315 9.99761 15.886 8.50233 15.4758 7.10225C15.0656 5.70218 14.2129 4.47268 13.0453 3.59792C11.8777 2.72317 10.4581 2.25025 8.9992 2.25V3.375Z" fill="#A0ADD7"/>
<path d="M9.00058 5.02423V0.600725C9.00056 0.547283 8.98531 0.494954 8.95663 0.449864C8.92794 0.404773 8.887 0.368789 8.8386 0.346125C8.79021 0.323461 8.73635 0.315055 8.68335 0.321891C8.63035 0.328727 8.58039 0.350522 8.53933 0.384725L5.88433 2.59647C5.85267 2.62287 5.82721 2.6559 5.80974 2.69323C5.79226 2.73055 5.7832 2.77126 5.7832 2.81247C5.7832 2.85369 5.79226 2.8944 5.80974 2.93172C5.82721 2.96905 5.85267 3.00208 5.88433 3.02847L8.53933 5.24022C8.58039 5.27443 8.63035 5.29622 8.68335 5.30306C8.73635 5.3099 8.79021 5.30149 8.8386 5.27882C8.887 5.25616 8.92794 5.22018 8.95663 5.17509C8.98531 5.13 9.00056 5.07767 9.00058 5.02423Z" fill="#A0ADD7"/>
</svg>
