<svg width="18" height="18" viewBox="0 0 18 18" fill="none" xmlns="http://www.w3.org/2000/svg">
<path d="M0 4.5C0 3.90326 0.237053 3.33097 0.65901 2.90901C1.08097 2.48705 1.65326 2.25 2.25 2.25H15.75C16.3467 2.25 16.919 2.48705 17.341 2.90901C17.7629 3.33097 18 3.90326 18 4.5V13.5C18 14.0967 17.7629 14.669 17.341 15.091C16.919 15.5129 16.3467 15.75 15.75 15.75H2.25C1.65326 15.75 1.08097 15.5129 0.65901 15.091C0.237053 14.669 0 14.0967 0 13.5V4.5ZM2.25 3.375C1.95163 3.375 1.66548 3.49353 1.4545 3.7045C1.24353 3.91548 1.125 4.20163 1.125 4.5V5.625H16.875V4.5C16.875 4.20163 16.7565 3.91548 16.5455 3.7045C16.3345 3.49353 16.0484 3.375 15.75 3.375H2.25ZM16.875 7.875H1.125V13.5C1.125 13.7984 1.24353 14.0845 1.4545 14.2955C1.66548 14.5065 1.95163 14.625 2.25 14.625H15.75C16.0484 14.625 16.3345 14.5065 16.5455 14.2955C16.7565 14.0845 16.875 13.7984 16.875 13.5V7.875Z" fill="#A0ADD7"/>
<path d="M2.25 11.25C2.25 10.9516 2.36853 10.6655 2.5795 10.4545C2.79048 10.2435 3.07663 10.125 3.375 10.125H4.5C4.79837 10.125 5.08452 10.2435 5.2955 10.4545C5.50647 10.6655 5.625 10.9516 5.625 11.25V12.375C5.625 12.6734 5.50647 12.9595 5.2955 13.1705C5.08452 13.3815 4.79837 13.5 4.5 13.5H3.375C3.07663 13.5 2.79048 13.3815 2.5795 13.1705C2.36853 12.9595 2.25 12.6734 2.25 12.375V11.25Z" fill="#A0ADD7"/>
</svg>
