<svg width="16" height="17" viewBox="0 0 16 17" fill="none" xmlns="http://www.w3.org/2000/svg">
<path d="M13.5003 1.49995C13.1024 1.49995 12.7209 1.65798 12.4396 1.93929C12.1583 2.22059 12.0003 2.60212 12.0003 2.99995C12.0003 3.39777 12.1583 3.7793 12.4396 4.06061C12.7209 4.34191 13.1024 4.49995 13.5003 4.49995C13.8981 4.49995 14.2796 4.34191 14.5609 4.06061C14.8422 3.7793 15.0003 3.39777 15.0003 2.99995C15.0003 2.60212 14.8422 2.22059 14.5609 1.93929C14.2796 1.65798 13.8981 1.49995 13.5003 1.49995ZM11.0003 2.99995C11.0002 2.41338 11.2064 1.84546 11.5827 1.39556C11.9591 0.945654 12.4817 0.642411 13.059 0.538885C13.6364 0.435359 14.2318 0.538141 14.741 0.82925C15.2502 1.12036 15.6409 1.58126 15.8446 2.13131C16.0484 2.68135 16.0522 3.28553 15.8555 3.83812C15.6587 4.39071 15.274 4.85654 14.7685 5.15409C14.263 5.45165 13.669 5.56198 13.0903 5.4658C12.5117 5.36962 11.9853 5.07304 11.6033 4.62795L4.88527 7.74795C5.03971 8.23739 5.03971 8.76251 4.88527 9.25195L11.6033 12.3719C12.0071 11.9023 12.5709 11.5993 13.1855 11.5216C13.8 11.4439 14.4215 11.5972 14.9294 11.9516C15.4374 12.3061 15.7957 12.8365 15.9349 13.4401C16.0741 14.0436 15.9843 14.6774 15.6829 15.2185C15.3814 15.7596 14.8898 16.1696 14.3033 16.3689C13.7169 16.5682 13.0773 16.5427 12.5085 16.2974C11.9398 16.052 11.4824 15.6042 11.225 15.0408C10.9676 14.4774 10.9285 13.8385 11.1153 13.2479L4.39727 10.1279C4.0647 10.5155 3.62142 10.7919 3.12704 10.92C2.63267 11.0481 2.11093 11.0217 1.632 10.8444C1.15308 10.6671 0.739941 10.3474 0.448173 9.92824C0.156404 9.50909 0 9.01064 0 8.49995C0 7.98925 0.156404 7.49081 0.448173 7.07166C0.739941 6.65252 1.15308 6.33278 1.632 6.15547C2.11093 5.97816 2.63267 5.95177 3.12704 6.07986C3.62142 6.20795 4.0647 6.48438 4.39727 6.87195L11.1153 3.75195C11.0388 3.50862 11 3.25501 11.0003 2.99995V2.99995ZM2.50027 6.99995C2.10244 6.99995 1.72091 7.15798 1.43961 7.43929C1.1583 7.72059 1.00027 8.10212 1.00027 8.49995C1.00027 8.89777 1.1583 9.2793 1.43961 9.56061C1.72091 9.84191 2.10244 9.99995 2.50027 9.99995C2.89809 9.99995 3.27962 9.84191 3.56093 9.56061C3.84223 9.2793 4.00027 8.89777 4.00027 8.49995C4.00027 8.10212 3.84223 7.72059 3.56093 7.43929C3.27962 7.15798 2.89809 6.99995 2.50027 6.99995ZM13.5003 12.4999C13.1024 12.4999 12.7209 12.658 12.4396 12.9393C12.1583 13.2206 12.0003 13.6021 12.0003 13.9999C12.0003 14.3978 12.1583 14.7793 12.4396 15.0606C12.7209 15.3419 13.1024 15.4999 13.5003 15.4999C13.8981 15.4999 14.2796 15.3419 14.5609 15.0606C14.8422 14.7793 15.0003 14.3978 15.0003 13.9999C15.0003 13.6021 14.8422 13.2206 14.5609 12.9393C14.2796 12.658 13.8981 12.4999 13.5003 12.4999Z" fill="#262626"/>
</svg>
