<svg width="24" height="24" viewBox="0 0 24 24" fill="none" xmlns="http://www.w3.org/2000/svg">
<path d="M8.865 4.99995C9.616 4.99995 10.305 5.20195 10.934 5.60895C11.258 5.52895 11.645 5.48795 12.091 5.48795C13.937 5.48795 15.509 6.15795 16.808 7.49595C18.107 8.83495 18.756 10.4579 18.756 12.3659C18.756 12.8319 18.705 13.3189 18.604 13.8269C18.868 14.4159 19 15.0139 19 15.6209C19 16.7179 18.62 17.6569 17.858 18.4359C17.097 19.2169 16.19 19.6089 15.133 19.6089C14.4928 19.6063 13.8641 19.4382 13.308 19.1209C12.781 19.2019 12.375 19.2429 12.091 19.2429C10.244 19.2429 8.666 18.5729 7.358 17.2339C6.05 15.8949 5.395 14.2719 5.395 12.3659C5.395 11.9189 5.446 11.4639 5.547 10.9959C5.18054 10.3796 4.99126 9.674 5 8.95695C5 7.86095 5.376 6.92795 6.126 6.15795C6.876 5.38595 7.79 4.99995 8.865 4.99995ZM12 15.5299C11.594 15.5299 11.271 15.4689 11.025 15.3469C10.762 15.2049 10.58 15.0629 10.478 14.9219C10.235 14.4749 10.102 14.2409 10.082 14.2219C10.0101 13.9932 9.88538 13.7846 9.718 13.6129C9.54141 13.4809 9.3284 13.4065 9.108 13.3999C8.9788 13.3954 8.85004 13.4174 8.72965 13.4645C8.60926 13.5116 8.4998 13.5829 8.408 13.6739C8.32104 13.756 8.25186 13.8551 8.20473 13.965C8.1576 14.0749 8.13352 14.1934 8.134 14.3129C8.134 14.6989 8.278 15.1139 8.562 15.5609C8.825 15.9659 9.191 16.3019 9.658 16.5639C10.306 16.9099 11.108 17.0829 12.062 17.0829C12.852 17.0829 13.552 16.9609 14.162 16.7179C14.771 16.4339 15.217 16.0789 15.501 15.6529C15.805 15.1859 15.957 14.6779 15.957 14.1309C15.957 13.6859 15.877 13.2789 15.715 12.9139C15.552 12.6099 15.299 12.3359 14.953 12.0939C14.5888 11.8696 14.2012 11.6858 13.797 11.5459C13.3146 11.3974 12.8273 11.2653 12.336 11.1499C12.1568 11.1225 11.9789 11.0868 11.803 11.0429L11.393 10.9369C11.2139 10.8832 11.0404 10.8122 10.875 10.7249C10.717 10.6478 10.5809 10.5323 10.479 10.3889C10.4276 10.3371 10.3876 10.2751 10.3614 10.2069C10.3352 10.1387 10.3235 10.0659 10.327 9.99295C10.327 9.74995 10.469 9.53795 10.753 9.35395C11.018 9.15095 11.402 9.04895 11.909 9.04895C12.417 9.04895 12.793 9.14095 13.036 9.32195C13.299 9.54695 13.492 9.79995 13.613 10.0839C13.776 10.3479 13.908 10.5299 14.009 10.6309C14.1757 10.7552 14.3792 10.82 14.587 10.8149C14.7183 10.8148 14.8481 10.7875 14.9684 10.7349C15.0887 10.6822 15.1968 10.6053 15.286 10.5089C15.3756 10.4225 15.4463 10.3184 15.4937 10.2033C15.541 10.0881 15.5639 9.96442 15.561 9.83995C15.561 9.63795 15.489 9.37295 15.347 9.04895C15.1634 8.78169 14.9489 8.53701 14.708 8.31995C14.424 8.09595 14.049 7.90295 13.581 7.74095C13.0766 7.59585 12.5539 7.52412 12.029 7.52795C11.299 7.52795 10.649 7.63795 10.081 7.86295C9.515 8.06295 9.078 8.36795 8.774 8.77395C8.47011 9.17675 8.30929 9.66943 8.317 10.1739C8.317 10.7009 8.46 11.1579 8.743 11.5439C9.089 11.9489 9.473 12.2319 9.899 12.3949C10.387 12.6189 10.975 12.8019 11.665 12.9429C11.786 12.9639 11.935 12.9989 12.106 13.0489L12.563 13.1719L12.882 13.2469C13.166 13.3499 13.399 13.4899 13.581 13.6739C13.764 13.8149 13.855 14.0279 13.855 14.3129C13.855 14.6589 13.693 14.9419 13.369 15.1659C13.005 15.4089 12.548 15.5299 12 15.5299ZM8.865 2.99995C7.256 2.99995 5.812 3.60995 4.691 4.76495C3.586 5.89895 3 7.34995 3 8.95695C3 9.78895 3.156 10.5759 3.466 11.3049C3.41955 11.657 3.39617 12.0118 3.396 12.3669C3.396 14.8049 4.249 16.9139 5.928 18.6339C7.621 20.3659 9.696 21.2439 12.092 21.2439C12.346 21.2439 12.639 21.2239 12.988 21.1839C13.678 21.4669 14.397 21.6099 15.134 21.6099C16.722 21.6099 18.159 20.9959 19.291 19.8329C19.8396 19.2785 20.273 18.6209 20.5663 17.8982C20.8596 17.1755 21.007 16.4019 21 15.6219C21 14.9449 20.889 14.2729 20.668 13.6179C20.7262 13.2035 20.7559 12.7855 20.757 12.3669C20.757 9.92995 19.911 7.82295 18.244 6.10395C16.559 4.36895 14.489 3.48895 12.092 3.48895C11.8245 3.48856 11.5572 3.50124 11.291 3.52695C10.5307 3.1757 9.70251 2.99579 8.865 2.99995Z" fill="#0938CE"/>
</svg>
