<svg width="24" height="24" viewBox="0 0 24 24" fill="none" xmlns="http://www.w3.org/2000/svg">
<path fill-rule="evenodd" clip-rule="evenodd" d="M5.78734 14.02C5.83031 14.0343 5.87449 14.0447 5.91934 14.051C6.20226 14.7176 6.48359 15.385 6.76334 16.053C7.26634 17.255 7.77334 18.493 7.88434 18.849C8.02334 19.287 8.16934 19.585 8.32934 19.789C8.41234 19.893 8.50734 19.985 8.61934 20.055C8.67768 20.0915 8.74011 20.121 8.80534 20.143C9.12534 20.263 9.41734 20.213 9.60034 20.152C9.70773 20.1153 9.80991 20.0649 9.90434 20.002L9.90934 20L12.7353 18.238L16.0003 20.74C16.0483 20.777 16.1003 20.808 16.1563 20.833C16.5483 21.003 16.9283 21.063 17.2863 21.015C17.6423 20.965 17.9253 20.816 18.1363 20.647C18.3786 20.4517 18.5718 20.2024 18.7003 19.919L18.7093 19.897L18.7123 19.889L18.7143 19.885V19.883L18.7153 19.882C18.7327 19.839 18.7461 19.7945 18.7553 19.749L21.7353 4.72399C21.7448 4.67589 21.7494 4.62699 21.7493 4.57799C21.7493 4.13799 21.5833 3.71899 21.1943 3.46599C20.8603 3.24899 20.4893 3.23899 20.2543 3.25699C20.0023 3.27699 19.7683 3.33899 19.6113 3.38899C19.5235 3.41684 19.4367 3.4482 19.3513 3.48299L19.3403 3.48799L2.62634 10.044L2.62434 10.045C2.56779 10.0658 2.51208 10.0888 2.45734 10.114C2.3248 10.1736 2.19766 10.2445 2.07734 10.326C1.85034 10.481 1.32734 10.907 1.41634 11.611C1.48634 12.171 1.87034 12.516 2.10534 12.682C2.23334 12.773 2.35534 12.838 2.44534 12.881C2.48534 12.901 2.57134 12.935 2.60834 12.951L2.61834 12.954L5.78734 14.02ZM19.9253 4.86799H19.9233C19.9147 4.87181 19.9061 4.87548 19.8973 4.87899L3.16334 11.444C3.15473 11.4475 3.14606 11.4508 3.13734 11.454L3.12734 11.457C3.09677 11.469 3.06674 11.4823 3.03734 11.497C3.06517 11.5129 3.09388 11.5273 3.12334 11.54L6.26534 12.598C6.32149 12.6169 6.37519 12.6424 6.42534 12.674L16.8023 6.59899L16.8123 6.59399C16.8526 6.56949 16.894 6.5468 16.9363 6.52599C17.0083 6.48899 17.1233 6.43499 17.2533 6.39499C17.3433 6.36699 17.6103 6.28799 17.8983 6.38099C18.0511 6.42914 18.1872 6.51927 18.2912 6.64111C18.3952 6.76294 18.4628 6.91156 18.4863 7.06999C18.5236 7.20874 18.5246 7.35472 18.4893 7.49399C18.4193 7.76899 18.2273 7.98299 18.0523 8.14699C17.9023 8.28699 15.9563 10.163 14.0373 12.015L11.4243 14.535L10.9593 14.985L16.8313 19.487C16.9106 19.5203 16.9967 19.534 17.0823 19.527C17.1255 19.5211 17.1661 19.5031 17.1993 19.475C17.2399 19.4408 17.2747 19.4002 17.3023 19.355L17.3043 19.354L20.1943 4.78099C20.1033 4.80288 20.014 4.83163 19.9273 4.86699L19.9253 4.86799ZM11.4643 17.262L10.2923 16.364L10.0083 18.169L11.4643 17.262ZM9.21734 14.582L10.3823 13.457L12.9953 10.935L13.9683 9.99699L7.44834 13.814L7.48334 13.896C7.89454 14.8674 8.30121 15.8408 8.70334 16.816L8.98634 15.016C9.01195 14.849 9.09338 14.6967 9.21734 14.582Z" fill="#0938CE"/>
</svg>
