<svg width="126" height="32" viewBox="0 0 126 32" fill="none" xmlns="http://www.w3.org/2000/svg">
<g clip-path="url(#clip0_3501_1269)">
<path d="M34.9778 0V13.1026C34.9778 22.9787 27.1652 30.9825 17.5243 30.9825H0V24.2697H17.5243C23.0839 24.2697 27.5879 19.236 27.5879 13.1026V6.71288H7.31915L7.35931 15.3976H0V0H34.9778Z" fill="#0938CE"/>
<path d="M60.1595 20.9037V31.4856H55.449V29.0013L55.6422 27.0008H55.5772C54.1581 30.0971 51.0598 32.002 47.1239 32.002C40.543 32.002 39.0264 28.4849 39.0264 25.6467C39.0264 22.4203 41.0594 19.4846 47.866 19.4846C51.0923 19.4846 54.0606 20.1942 55.4471 20.678V19.871C55.4146 16.9678 53.7373 15.1605 49.6408 15.1605C45.898 15.1605 44.5439 16.8377 44.3508 18.6451H39.7378C40.1241 15.6768 42.029 11.9341 49.7708 11.9341C58.4172 11.9341 60.1595 16.0307 60.1595 20.9018V20.9037ZM55.3534 23.4531C53.7718 22.7435 51.0637 22.2922 48.9656 22.2922C44.7065 22.2922 43.7082 23.8413 43.7082 25.3254C43.7082 26.8095 44.804 28.3261 48.3862 28.3261C52.8385 28.3261 54.9346 25.6812 55.3553 23.455L55.3534 23.4531Z" fill="#262626"/>
<path d="M78.0343 31.4531C76.8084 31.7438 75.2267 32.0019 73.3888 32.0019C67.7431 32.0019 66.4196 28.6799 66.4196 24.8721V16.1301H62.7744V12.4523H66.4196V8.1626H71.1301V12.4523H77.4529V16.1301H71.1301V24.0345C71.1301 26.5188 71.7441 28.2936 74.7429 28.2936C75.9688 28.2936 77.0665 28.133 77.9042 27.9704L78.0324 31.455L78.0343 31.4531Z" fill="#262626"/>
<path d="M80.5186 25.2259H85.0359C85.229 27.5802 87.4552 28.5805 90.7466 28.5805C94.2943 28.5805 95.5202 27.6778 95.5202 26.2893C95.5202 24.547 93.8755 24.0956 89.842 23.5468C83.7775 22.7397 81.0024 21.1925 81.0024 17.6429C81.0024 14.579 83.131 11.9321 89.9395 11.9321C96.748 11.9321 99.875 15.126 99.94 18.1592H95.2295C95.0364 16.5776 93.3266 15.3517 89.777 15.3517C86.8413 15.3517 85.776 16.1913 85.776 17.4803C85.776 19.2551 87.3883 19.6739 91.0029 20.0928C97.6163 20.7698 100.294 22.5446 100.294 26.0292C100.294 29.8045 97.1325 31.9981 90.6166 31.9981C83.4868 31.9981 80.5186 28.9974 80.5186 25.224V25.2259Z" fill="#262626"/>
<path d="M121.104 12.4504H125.814V31.4836H121.104V29.1924L121.297 26.9338H121.232C119.845 29.967 117.135 31.9981 112.844 31.9981C107.521 31.9981 104.102 29.2881 104.102 22.8047V12.4485H108.812V22.2558C108.812 26.2242 110.715 28.1272 114.36 28.1272C119.038 28.1272 121.104 24.6101 121.104 21.2231V12.4485V12.4504Z" fill="#262626"/>
</g>
<defs>
<clipPath id="clip0_3501_1269">
<rect width="125.814" height="32" fill="white"/>
</clipPath>
</defs>
</svg>
