<svg width="126" height="32" viewBox="0 0 126 32" fill="none" xmlns="http://www.w3.org/2000/svg">
<g clip-path="url(#clip0_1674_1130)">
<path d="M34.9778 0V13.1026C34.9778 22.9787 27.1652 30.9825 17.5243 30.9825H0V24.2697H17.5243C23.0839 24.2697 27.5879 19.236 27.5879 13.1026V6.71288H7.31915L7.35931 15.3976H0V0H34.9778Z" fill="#0938CE"/>
<path d="M60.1605 20.9037V31.4856H55.45V29.0013L55.6432 27.0008H55.5781C54.1591 30.0971 51.0608 32.002 47.1249 32.002C40.544 32.002 39.0273 28.4849 39.0273 25.6467C39.0273 22.4203 41.0603 19.4846 47.8669 19.4846C51.0933 19.4846 54.0615 20.1942 55.4481 20.678V19.871C55.4156 16.9678 53.7383 15.1605 49.6417 15.1605C45.899 15.1605 44.5449 16.8377 44.3518 18.6451H39.7388C40.1251 15.6768 42.03 11.9341 49.7718 11.9341C58.4182 11.9341 60.1605 16.0307 60.1605 20.9018V20.9037ZM55.3544 23.4531C53.7727 22.7435 51.0646 22.2922 48.9666 22.2922C44.7075 22.2922 43.7091 23.8413 43.7091 25.3254C43.7091 26.8095 44.805 28.3261 48.3871 28.3261C52.8394 28.3261 54.9355 25.6812 55.3563 23.455L55.3544 23.4531Z" fill="#262626"/>
<path d="M78.0333 31.4531C76.8074 31.7438 75.2257 32.0019 73.3878 32.0019C67.7421 32.0019 66.4187 28.6799 66.4187 24.8721V16.1301H62.7734V12.4523H66.4187V8.1626H71.1292V12.4523H77.4519V16.1301H71.1292V24.0345C71.1292 26.5188 71.7431 28.2936 74.7419 28.2936C75.9678 28.2936 77.0656 28.133 77.9032 27.9704L78.0314 31.455L78.0333 31.4531Z" fill="#262626"/>
<path d="M80.5176 25.2259H85.0349C85.2281 27.5802 87.4542 28.5805 90.7456 28.5805C94.2933 28.5805 95.5193 27.6778 95.5193 26.2893C95.5193 24.547 93.8745 24.0956 89.841 23.5468C83.7765 22.7397 81.0014 21.1925 81.0014 17.6429C81.0014 14.579 83.1301 11.9321 89.9386 11.9321C96.7471 11.9321 99.874 15.126 99.939 18.1592H95.2285C95.0354 16.5776 93.3256 15.3517 89.776 15.3517C86.8403 15.3517 85.775 16.1913 85.775 17.4803C85.775 19.2551 87.3873 19.6739 91.0019 20.0928C97.6153 20.7698 100.293 22.5446 100.293 26.0292C100.293 29.8045 97.1315 31.9981 90.6156 31.9981C83.4858 31.9981 80.5176 28.9974 80.5176 25.224V25.2259Z" fill="#262626"/>
<path d="M121.104 12.4504H125.814V31.4836H121.104V29.1924L121.297 26.9338H121.232C119.845 29.967 117.135 31.9981 112.844 31.9981C107.521 31.9981 104.102 29.2881 104.102 22.8047V12.4485H108.812V22.2558C108.812 26.2242 110.715 28.1272 114.36 28.1272C119.038 28.1272 121.104 24.6101 121.104 21.2231V12.4485V12.4504Z" fill="#262626"/>
</g>
<defs>
<clipPath id="clip0_1674_1130">
<rect width="125.814" height="32" fill="white"/>
</clipPath>
</defs>
</svg>
