<svg width="133" height="45" viewBox="0 0 173 45" fill="none" xmlns="http://www.w3.org/2000/svg">
<g clip-path="url(#clip0_1572_2115)">
<path d="M48.096 0.5V18.516C48.096 32.0957 37.3534 43.101 24.0967 43.101H0V33.8708H24.0967C31.7414 33.8708 37.9346 26.9494 37.9346 18.516V9.73022H10.0642L10.1194 21.6716H0V0.5H48.096Z" fill="#0938CE"/>
<path d="M82.7231 29.2424V43.7925H76.246V40.3765L76.5116 37.6259H76.4222C74.4709 41.8834 70.2106 44.5025 64.7985 44.5025C55.7495 44.5025 53.6641 39.6665 53.6641 35.7641C53.6641 31.3278 56.4595 27.2912 65.8189 27.2912C70.2553 27.2912 74.3368 28.2668 76.2433 28.9321V27.8224C76.1986 23.8305 73.8923 21.3455 68.2593 21.3455C63.1129 21.3455 61.251 23.6517 60.9854 26.1368H54.6423C55.1736 22.0555 57.7928 16.9092 68.4382 16.9092C80.3274 16.9092 82.7231 22.542 82.7231 29.2398V29.2424ZM76.1145 32.7478C73.9397 31.7722 70.2159 31.1516 67.331 31.1516C61.4745 31.1516 60.1018 33.2816 60.1018 35.3223C60.1018 37.3629 61.6086 39.4483 66.5342 39.4483C72.6563 39.4483 75.5386 35.8114 76.1171 32.7504L76.1145 32.7478Z" fill="white"/>
<path d="M107.299 43.748C105.614 44.1477 103.439 44.5027 100.912 44.5027C93.1486 44.5027 91.3288 39.935 91.3288 34.6992V22.6789H86.3164V17.622H91.3288V11.7236H97.8059V17.622H106.5V22.6789H97.8059V33.5474C97.8059 36.9634 98.6501 39.4038 102.774 39.4038C104.459 39.4038 105.969 39.1829 107.121 38.9593L107.297 43.7506L107.299 43.748Z" fill="white"/>
<path d="M110.717 35.1857H116.928C117.194 38.4229 120.255 39.7982 124.781 39.7982C129.659 39.7982 131.345 38.557 131.345 36.6478C131.345 34.2522 129.083 33.6316 123.537 32.8769C115.198 31.7671 111.382 29.6397 111.382 24.759C111.382 20.5462 114.309 16.9067 123.671 16.9067C133.033 16.9067 137.333 21.2983 137.422 25.469H130.945C130.679 23.2943 128.328 21.6086 123.448 21.6086C119.411 21.6086 117.946 22.7631 117.946 24.5355C117.946 26.9758 120.163 27.5517 125.133 28.1276C134.227 29.0585 137.909 31.4989 137.909 36.2902C137.909 41.4812 133.562 44.4975 124.602 44.4975C114.798 44.4975 110.717 40.3715 110.717 35.1831V35.1857Z" fill="white"/>
<path d="M166.523 17.6193H173V43.79H166.523V40.6396L166.789 37.534H166.699C164.793 41.7047 161.066 44.4974 155.165 44.4974C147.847 44.4974 143.145 40.7711 143.145 31.8565V17.6167H149.622V31.1018C149.622 36.5584 152.238 39.1749 157.251 39.1749C163.683 39.1749 166.523 34.3389 166.523 29.6817V17.6167V17.6193Z" fill="white"/>
</g>
<defs>
<clipPath id="clip0_1572_2115">
<rect width="173" height="44" fill="white" transform="translate(0 0.5)"/>
</clipPath>
</defs>
</svg>
